<svg width="20" height="20" viewBox="0 0 20 20" fill="none" xmlns="http://www.w3.org/2000/svg">
<g id="add">
<path id="Vector" d="M15 10.8333H10.8333V15C10.8333 15.4583 10.4583 15.8333 9.99996 15.8333C9.54163 15.8333 9.16663 15.4583 9.16663 15V10.8333H4.99996C4.54163 10.8333 4.16663 10.4583 4.16663 10C4.16663 9.54166 4.54163 9.16666 4.99996 9.16666H9.16663V5C9.16663 4.54166 9.54163 4.16666 9.99996 4.16666C10.4583 4.16666 10.8333 4.54166 10.8333 5V9.16666H15C15.4583 9.16666 15.8333 9.54166 15.8333 10C15.8333 10.4583 15.4583 10.8333 15 10.8333Z" fill="#AC68FF"/>
</g>
</svg>
