<svg width="96" height="96" viewBox="0 0 96 96" fill="none" xmlns="http://www.w3.org/2000/svg">
<g id="add_a_photo">
<g id="Vector">
<path d="M14 34C14 36.2 15.8 38 18 38C20.2 38 22 36.2 22 34V26H30C32.2 26 34 24.2 34 22C34 19.8 32.2 18 30 18H22V10C22 7.8 20.2 6 18 6C15.8 6 14 7.8 14 10V18H6C3.8 18 2 19.8 2 22C2 24.2 3.8 26 6 26H14V34Z" fill="#AC68FF"/>
<path d="M54 70C60.6274 70 66 64.6274 66 58C66 51.3726 60.6274 46 54 46C47.3726 46 42 51.3726 42 58C42 64.6274 47.3726 70 54 70Z" fill="#AC68FF"/>
<path d="M86 26H73.32L68.36 20.6C66.88 18.96 64.72 18 62.48 18H36.88C37.56 19.2 38 20.52 38 22C38 26.4 34.4 30 30 30H26V34C26 38.4 22.4 42 18 42C16.52 42 15.2 41.56 14 40.88V82C14 86.4 17.6 90 22 90H86C90.4 90 94 86.4 94 82V34C94 29.6 90.4 26 86 26ZM54 78C42.96 78 34 69.04 34 58C34 46.96 42.96 38 54 38C65.04 38 74 46.96 74 58C74 69.04 65.04 78 54 78Z" fill="#AC68FF"/>
</g>
</g>
</svg>
