<svg width="32" height="32" viewBox="0 0 32 32" fill="none" xmlns="http://www.w3.org/2000/svg">
<g id="game-icons:clothes">
<path id="Vector" d="M8.33123 2.08813L4.8681 2.95313L2.16248 9.26876L4.2431 10.6563L5.95935 7.22501L7.02498 7.53126L6.0831 16.9125H15.325L15.9 11.4188L15.9562 10.9125H16.2375L15.9 7.53126L16.9687 7.22501L18.6812 10.6563L20.7625 9.26876L18.0562 2.95313L14.5937 2.08813C14.25 2.33001 13.8312 2.47626 13.375 2.58501C12.7875 2.72313 12.125 2.78751 11.4625 2.78751C10.8 2.78751 10.1375 2.72313 9.54998 2.58501C9.09373 2.47626 8.67498 2.33063 8.33123 2.08813ZM16.9687 12.0375L16.875 12.9125H28.05L27.9562 12.0375H16.9687ZM16.7562 14.0375L15.0875 29.9125H19.0062L21.9125 16.3563H23.0125L25.9187 29.9125H29.8375L28.1687 14.0375H16.7562Z" fill="#8B8B8B"/>
</g>
</svg>
