<svg width="32" height="32" viewBox="0 0 32 32" fill="none" xmlns="http://www.w3.org/2000/svg">
<g id="settings">
<path id="Vector" d="M26 16C26 15.6934 25.9867 15.4 25.96 15.0934L28.44 13.2134C28.9734 12.8134 29.12 12.0667 28.7867 11.48L26.2934 7.17335C25.96 6.58669 25.24 6.34669 24.6267 6.61335L21.76 7.82669C21.2667 7.48002 20.7467 7.17335 20.2 6.92002L19.8134 3.84002C19.7334 3.17335 19.16 2.66669 18.4934 2.66669H13.52C12.84 2.66669 12.2667 3.17335 12.1867 3.84002L11.8 6.92002C11.2534 7.17335 10.7334 7.48002 10.24 7.82669L7.37337 6.61335C6.76004 6.34669 6.04004 6.58669 5.70671 7.17335L3.21338 11.4934C2.88004 12.08 3.02671 12.8134 3.56004 13.2267L6.04004 15.1067C6.01338 15.4 6.00004 15.6934 6.00004 16C6.00004 16.3067 6.01338 16.6 6.04004 16.9067L3.56004 18.7867C3.02671 19.1867 2.88004 19.9334 3.21338 20.52L5.70671 24.8267C6.04004 25.4134 6.76004 25.6534 7.37337 25.3867L10.24 24.1734C10.7334 24.52 11.2534 24.8267 11.8 25.08L12.1867 28.16C12.2667 28.8267 12.84 29.3334 13.5067 29.3334H18.48C19.1467 29.3334 19.72 28.8267 19.8 28.16L20.1867 25.08C20.7334 24.8267 21.2534 24.52 21.7467 24.1734L24.6134 25.3867C25.2267 25.6534 25.9467 25.4134 26.28 24.8267L28.7734 20.52C29.1067 19.9334 28.96 19.2 28.4267 18.7867L25.9467 16.9067C25.9867 16.6 26 16.3067 26 16ZM16.0534 20.6667C13.48 20.6667 11.3867 18.5734 11.3867 16C11.3867 13.4267 13.48 11.3334 16.0534 11.3334C18.6267 11.3334 20.72 13.4267 20.72 16C20.72 18.5734 18.6267 20.6667 16.0534 20.6667Z" fill="#8B8B8B"/>
</g>
</svg>
